<?xml version="1.0" standalone="no"?>
<!DOCTYPE svg PUBLIC "-//W3C//DTD SVG 20010904//EN"
 "http://www.w3.org/TR/2001/REC-SVG-20010904/DTD/svg10.dtd">
<svg version="1.0" xmlns="http://www.w3.org/2000/svg"
 width="2000.000000pt" height="2000.000000pt" viewBox="0 0 2000.000000 2000.000000"
 preserveAspectRatio="xMidYMid meet">
<metadata>
Created by potrace 1.14, written by Peter Selinger 2001-2017
</metadata>
<g transform="translate(0.000000,2000.000000) scale(0.100000,-0.100000)"
fill="#000000" stroke="none">
<path d="M5881 15245 l0 -2825 42 -1 c398 -6 510 -9 667 -14 102 -3 212 -8
245 -10 33 -2 114 -6 180 -10 66 -3 131 -7 145 -9 14 -2 68 -7 120 -11 199
-14 257 -20 530 -55 73 -9 170 -23 245 -35 21 -3 123 -21 165 -29 22 -4 197
-41 240 -51 227 -51 490 -140 650 -220 168 -84 320 -208 356 -290 7 -16 14
-23 14 -15 5 69 0 5448 -4 5490 -35 290 -194 562 -426 725 -104 72 -249 140
-340 160 -14 2 -45 9 -70 14 -28 6 -567 10 -1402 11 l-1357 0 0 -2825z"/>
<path d="M11295 18046 c-403 -104 -691 -411 -769 -821 -13 -70 -15 -413 -15
-2824 l-1 -2745 30 46 c82 124 286 253 565 359 141 52 420 131 590 165 113 23
333 60 405 69 19 2 53 7 75 10 64 10 87 13 145 20 30 3 71 8 90 10 52 7 128
14 190 20 30 2 80 7 110 9 83 8 182 15 445 31 116 7 427 16 675 20 118 2 231
4 250 4 l35 1 -3 2825 -2 2825 -1363 0 -1362 -1 -90 -23z"/>
<path d="M4770 17299 c-350 -40 -704 -384 -864 -838 -38 -109 -64 -218 -74
-306 -9 -81 -8 -4316 1 -4385 12 -100 35 -185 75 -275 23 -53 88 -167 112
-198 58 -75 167 -185 214 -216 13 -9 41 -28 63 -42 55 -37 148 -83 218 -107
121 -42 211 -54 435 -57 246 -4 683 -15 750 -20 25 -1 104 -6 175 -9 72 -4
146 -9 165 -11 19 -2 76 -6 125 -10 50 -3 106 -8 125 -10 19 -2 67 -6 105 -9
71 -7 100 -10 235 -26 41 -5 99 -12 129 -15 30 -4 63 -9 75 -11 12 -2 41 -6
66 -9 39 -5 299 -47 370 -61 14 -2 41 -7 60 -10 19 -3 37 -7 40 -9 3 -2 25 -6
50 -10 25 -4 47 -8 51 -10 3 -2 19 -7 35 -9 111 -21 415 -103 573 -156 387
-130 651 -263 881 -445 121 -95 193 -132 322 -166 81 -22 99 -22 673 -23 517
0 664 4 725 17 108 25 213 75 317 155 85 64 205 146 274 187 45 26 314 160
382 190 197 86 525 189 827 260 51 12 301 64 330 69 19 3 76 12 125 21 50 9
122 20 160 25 39 5 81 12 95 14 14 2 52 8 85 12 33 4 67 8 75 9 8 1 49 6 90
10 41 4 86 8 100 10 14 2 59 6 100 10 41 3 91 8 110 10 296 29 923 44 1380 31
513 -13 974 382 1037 891 10 75 10 4309 1 4388 -66 554 -498 1090 -918 1140
-30 4 -65 8 -77 10 -22 4 -23 0 -23 -63 0 -37 -2 -1253 -3 -2702 l-2 -2635
-115 -1 c-162 -2 -696 -15 -750 -19 -25 -1 -110 -6 -190 -9 -80 -4 -161 -9
-180 -11 -19 -2 -75 -7 -125 -10 -49 -4 -106 -8 -125 -10 -19 -2 -64 -6 -100
-9 -36 -3 -92 -8 -125 -11 -33 -3 -76 -8 -95 -10 -19 -2 -73 -9 -120 -15 -47
-6 -103 -13 -125 -16 -72 -8 -107 -13 -270 -39 -133 -21 -400 -72 -505 -97
-47 -11 -92 -21 -100 -23 -54 -12 -161 -42 -260 -70 -715 -209 -1200 -517
-1392 -885 -47 -90 -86 -225 -83 -283 l2 -27 -491 2 -490 3 -3 45 c-5 73 -31
160 -72 245 -190 386 -708 709 -1481 921 -57 16 -203 53 -230 59 -8 2 -57 13
-108 24 -51 12 -110 24 -130 27 -20 3 -53 9 -72 14 -19 5 -48 11 -65 14 -16 2
-75 12 -130 21 -55 10 -109 18 -120 20 -11 1 -44 6 -74 10 -30 3 -63 9 -75 11
-12 2 -43 7 -71 10 -27 3 -61 7 -75 9 -14 2 -52 6 -85 9 -33 4 -76 9 -95 11
-65 8 -125 14 -195 20 -38 3 -86 8 -105 10 -19 2 -75 7 -125 10 -49 3 -117 8
-150 10 -59 5 -153 10 -375 20 -168 8 -408 14 -627 16 l-192 2 0 2666 c-1
1466 -1 2682 -1 2702 0 22 -5 35 -12 35 -7 0 -38 -3 -68 -7z"/>
<path d="M5229 8330 c-3 -14 -4 -4957 -1 -4971 3 -14 42 -16 358 -16 317 0
354 2 355 16 0 9 2 24 4 33 2 9 6 45 9 80 3 35 9 90 13 123 3 33 7 71 9 85 1
14 2 28 3 33 1 4 18 -12 38 -35 85 -98 216 -207 298 -249 22 -11 47 -24 55
-29 59 -34 194 -77 310 -99 291 -54 645 -7 870 117 128 71 293 208 367 307 13
17 39 50 58 75 19 25 35 49 35 54 0 5 6 17 14 25 19 21 81 141 113 216 64 149
119 347 139 490 3 28 8 58 9 67 4 17 13 103 20 188 10 117 4 505 -10 615 -3
22 -7 63 -10 90 -3 28 -7 59 -10 71 -3 12 -7 39 -10 60 -16 101 -73 306 -109
389 -7 17 -19 46 -27 65 -78 203 -287 464 -469 586 -92 62 -231 126 -333 154
-96 26 -91 25 -247 45 -29 4 -169 6 -255 4 -11 -1 -63 -7 -115 -15 -256 -39
-460 -143 -636 -321 -28 -29 -53 -53 -55 -53 -2 0 -4 405 -4 900 l0 900 -30 0
c-283 4 -755 4 -756 0z m1716 -2079 c165 -46 307 -150 397 -291 78 -124 140
-322 162 -520 18 -153 24 -450 11 -570 -3 -30 -7 -75 -9 -100 -13 -144 -66
-340 -123 -455 -99 -199 -239 -315 -447 -372 -96 -26 -306 -23 -421 7 -213 54
-379 187 -474 380 l-27 55 1 720 c1 802 -4 739 73 852 38 55 117 139 172 181
78 60 231 117 345 129 33 3 61 7 63 8 12 11 214 -7 277 -24z"/>
<path d="M3806 8168 c-190 -62 -302 -255 -269 -466 39 -252 258 -386 548 -337
155 27 266 120 314 263 37 109 29 233 -20 338 -52 111 -151 186 -279 213 -81
17 -224 12 -294 -11z"/>
<path d="M8 8060 c-3 -13 -2 -4676 1 -4706 1 -8 426 -11 1480 -10 1332 0 1480
1 1483 15 2 9 4 156 4 326 l-1 310 -1040 2 c-572 1 -1055 2 -1072 3 l-33 0 0
2035 0 2035 -77 1 c-735 4 -742 4 -745 -11z"/>
<path d="M10420 6914 c-147 -20 -229 -47 -336 -109 -111 -66 -195 -142 -288
-264 l-56 -73 0 48 c-1 47 -9 247 -14 309 l-2 30 -377 1 -377 2 0 -1758 0
-1757 395 0 395 0 0 1206 0 1206 36 60 c93 156 209 247 384 303 36 12 83 24
105 27 23 3 52 8 65 11 33 7 231 7 300 0 30 -4 79 -9 108 -12 45 -4 52 -3 53
13 6 203 3 716 -5 722 -20 15 -108 32 -190 37 -45 3 -88 6 -96 8 -8 1 -53 -3
-100 -10z"/>
<path d="M12618 6926 c-1 -2 -61 -6 -132 -10 -70 -3 -131 -8 -135 -10 -3 -2
-28 -7 -56 -10 -211 -28 -496 -140 -669 -264 -72 -52 -196 -166 -237 -218 -32
-41 -100 -144 -106 -161 -3 -10 -11 -25 -18 -33 -15 -19 -63 -150 -71 -193
-13 -73 -21 -172 -13 -177 4 -3 182 -5 395 -5 379 0 387 1 390 20 2 11 6 40 9
64 14 101 111 233 220 296 55 33 161 73 212 81 20 3 45 8 57 10 30 6 184 6
231 -1 195 -28 334 -110 413 -245 66 -111 83 -191 86 -402 l3 -178 -321 -1
c-313 -1 -346 -2 -491 -14 -216 -18 -489 -84 -630 -152 -27 -14 -66 -32 -85
-41 -19 -9 -75 -44 -124 -76 -302 -203 -449 -503 -441 -901 5 -238 65 -411
206 -591 195 -248 489 -398 839 -429 401 -35 749 79 1018 335 52 49 64 58 60
43 -1 -7 3 -36 17 -113 6 -34 28 -108 46 -155 l19 -51 406 0 405 0 -5 35 c-3
20 -21 81 -40 136 -19 55 -38 116 -41 135 -3 19 -10 53 -15 75 -9 39 -12 64
-26 195 -4 36 -8 481 -9 990 -1 509 -5 952 -9 985 -47 388 -244 680 -576 857
-97 52 -279 116 -375 132 -16 3 -41 8 -55 11 -48 10 -106 15 -215 21 -60 3
-115 7 -122 9 -6 2 -13 2 -15 1z m532 -1935 l46 -1 -1 -333 0 -333 -40 -58
c-121 -176 -348 -312 -570 -343 -68 -10 -230 -9 -284 1 -143 25 -279 116 -347
232 -81 137 -83 344 -6 503 70 145 288 280 497 307 22 3 46 7 54 10 8 2 66 7
130 11 64 3 117 6 118 7 1 1 294 -1 403 -3z"/>
<path d="M16378 6926 c-1 -2 -43 -6 -91 -10 -49 -3 -92 -8 -96 -10 -4 -3 -22
-8 -39 -11 -175 -30 -370 -161 -500 -335 -31 -41 -59 -79 -62 -83 -4 -4 -7 -2
-7 5 0 7 -4 78 -8 158 -5 80 -9 161 -9 180 l-1 35 -378 1 -377 2 0 -1757 0
-1758 395 0 394 0 0 1081 c0 595 0 1137 1 1206 l0 125 38 65 c20 36 69 97 108
136 107 107 259 175 444 199 43 5 278 7 305 1 11 -2 50 -7 88 -11 l67 -7 1 34
c0 18 1 183 2 366 l3 334 -26 12 c-31 16 -73 24 -159 32 -36 3 -71 7 -78 9 -6
2 -13 2 -15 1z"/>
<path d="M3580 5101 l0 -1757 395 -1 395 0 0 1757 0 1757 -395 1 -395 0 0
-1757z"/>
<path d="M16850 6845 c0 -7 12 -44 26 -81 14 -38 43 -118 64 -179 21 -60 63
-180 93 -265 54 -151 484 -1370 614 -1740 35 -102 68 -194 73 -205 4 -11 75
-209 155 -440 81 -231 160 -455 176 -498 l27 -78 -73 -192 c-87 -231 -98 -255
-149 -332 -118 -179 -276 -247 -581 -248 l-150 0 0 -299 c1 -258 3 -301 16
-308 8 -5 64 -19 124 -30 144 -29 405 -25 527 8 180 49 316 129 453 266 102
102 182 217 255 363 64 130 91 202 300 813 12 36 56 162 97 280 41 118 78 226
83 240 4 14 52 151 105 305 93 270 187 543 205 595 5 14 47 138 95 275 48 138
114 329 146 425 33 96 63 184 68 195 5 11 24 63 41 115 18 52 72 212 122 355
49 143 113 330 142 415 30 85 61 175 70 200 9 25 16 48 16 51 0 13 -829 8
-838 -5 -5 -6 -12 -24 -16 -41 -4 -16 -20 -73 -36 -125 -45 -145 -154 -508
-200 -665 -62 -210 -118 -397 -220 -735 -50 -168 -107 -357 -126 -420 -19 -63
-41 -135 -49 -160 -7 -25 -23 -78 -35 -119 -22 -79 -39 -117 -40 -92 0 7 -18
70 -40 140 -21 69 -65 207 -96 306 -31 99 -66 214 -79 255 -82 266 -338 1086
-462 1480 -25 80 -48 155 -50 166 l-5 22 -424 0 c-336 0 -424 -3 -424 -13z"/>
</g>
</svg>
